#N canvas 724 233 1863 1123 10;
#X obj 19 248 dac~;
#X obj 19 226 *~ 0.15;
#X obj 175 61 bng 15 250 50 0 empty empty empty 17 7 0 10 -262144 -1
-1;
#X msg 301 76 read -resize \$1 array1;
#X obj 301 106 soundfiler;
#X obj 299 50 openpanel;
#X obj 298 25 bng 15 250 50 0 empty empty empty 17 7 0 10 -262144 -1
-1;
#X obj 407 179 table array1 441000;
#X obj 299 151 s sampleLen;
#X msg 106 38 set array1;
#X obj 33 179 rateplay~ array1 1;
#X obj 221 183 hsl 128 15 0 2 0 0 empty empty empty -2 -8 0 10 -262144
-1 -1 0 1;
#X connect 1 0 0 0;
#X connect 1 0 0 1;
#X connect 2 0 10 0;
#X connect 3 0 4 0;
#X connect 4 0 8 0;
#X connect 5 0 3 0;
#X connect 6 0 5 0;
#X connect 9 0 10 0;
#X connect 10 0 1 0;
#X connect 11 0 10 1;
